# xmcd CD database file
#
# Track frame offsets:
#	150
#	14022
#	30151
#	45456
#	61382
#	72952
#	94218
#	105563
#	120346
#	137463
#	153842
#	176652
#
# Disc length: 2529 seconds
#
# Revision: 0
# Processed by: cddbd v1.5.2PL0 Copyright (c) Steve Scherf et al.
# Submitted via: CDex 1.51
#
DISCID=9009df0c
DTITLE=Buckles And Boots - Country Rock Stars
DYEAR=2010
DGENRE=Country
TTITLE0=Buckles And Boots
TTITLE1=About You
TTITLE2=I Want You To Want Me
TTITLE3=Country Rock Star
TTITLE4=Run Run Run
TTITLE5=Live and Love
TTITLE6=High Cotton
TTITLE7=Bonrider
TTITLE8=Livin' On Love
TTITLE9=Saddle Up
TTITLE10=Green And Blue Tattoo
TTITLE11=I Saw The Light
EXTD=YEAR: 2010
EXTT0=
EXTT1=
EXTT2=
EXTT3=
EXTT4=
EXTT5=
EXTT6=
EXTT7=
EXTT8=
EXTT9=
EXTT10=
EXTT11=
PLAYORDER=
